<?xml version="1.0" encoding="UTF-8"?>
<svg width="16px" height="16px" viewBox="0 0 16 16" version="1.1" xmlns="http://www.w3.org/2000/svg" xmlns:xlink="http://www.w3.org/1999/xlink">
    <title>文件夹</title>
    <defs>
        <polygon id="path-1" points="0 0 16 0 16 16 0 16"></polygon>
        <polygon id="path-3" points="0 0 15 0 15 12.8523143 0 12.8523143"></polygon>
    </defs>
    <g id="页面-1" stroke="none" stroke-width="1" fill="none" fill-rule="evenodd">
        <g id="文件传输" transform="translate(-555.000000, -515.000000)">
            <g id="编组-11" transform="translate(527.000000, 182.000000)">
                <g id="编组-16" transform="translate(12.000000, 100.000000)">
                    <g id="编组-15" transform="translate(6.000000, 80.000000)">
                        <g id="2" transform="translate(0.000000, 28.000000)">
                            <g id="1备份-2" transform="translate(0.000000, 114.000000)">
                                <g id="文件夹" transform="translate(10.000000, 11.000000)">
                                    <mask id="mask-2" fill="white">
                                        <use xlink:href="#path-1"></use>
                                    </mask>
                                    <g id="Clip-2"></g>
                                    <g id="File" mask="url(#mask-2)">
                                        <g transform="translate(0.500000, 1.500000)">
                                            <mask id="mask-4" fill="white">
                                                <use xlink:href="#path-3"></use>
                                            </mask>
                                            <g id="Clip-2" stroke="none" fill="none"></g>
                                            <path d="M11.3103631,2.71482786 L-0.00125571174,2.71482786 L-0.00125571174,1.77622519 C-0.00125571174,0.795284105 0.794028393,8.52651283e-13 1.77496948,8.52651283e-13 L8.35755694,8.52651283e-13 C9.0917716,8.52651283e-13 9.77636471,0.370162894 10.178339,0.984624507 L11.3103631,2.71482786 Z" id="Fill-1" stroke="none" fill="#FFBA53" fill-rule="evenodd" mask="url(#mask-4)"></path>
                                            <path d="M15,4.15051039 L15,10.9675229 C15,12.2744886 14.4107157,12.8523143 13.1039174,12.8523143 L1.90627579,12.8523143 C0.599393796,12.8523143 -0.00125571174,12.2743212 -0.00125571174,10.9675229 L-0.00125571174,2.13437511 L13.1039174,2.13437511 C14.4108831,2.13437511 15,2.84377489 15,4.15051039 Z" id="Fill-3" stroke="none" fill="#FFDC53" fill-rule="evenodd" mask="url(#mask-4)"></path>
                                        </g>
                                    </g>
                                </g>
                            </g>
                        </g>
                    </g>
                </g>
            </g>
        </g>
    </g>
</svg>